<svg data-v-0dd9719b="" version="1.0" xmlns="http://www.w3.org/2000/svg" xmlns:xlink="http://www.w3.org/1999/xlink" width="100%" height="100%" viewBox="0 0 340.000000 250.000000" preserveAspectRatio="xMidYMid meet" color-interpolation-filters="sRGB" style="margin: auto;"> <rect data-v-0dd9719b="" x="0" y="0" width="100%" height="100%" fill="#fff" fill-opacity="1" class="background"></rect> <rect data-v-0dd9719b="" x="0" y="0" width="100%" height="100%" fill="url(#watermark)" fill-opacity="1" class="watermarklayer"></rect> <g data-v-0dd9719b="" fill="#25bcbd" class="icon-text-wrapper icon-svg-group iconsvg" transform="translate(48.44999694824219,94.87861061096191)"><g class="iconsvg-imagesvg" transform="translate(0,0)"><g><rect fill="#25bcbd" fill-opacity="0" stroke-width="2" x="0" y="0" width="60" height="60.24277839693966" class="image-rect"></rect> <svg x="0" y="0" width="60" height="60.24277839693966" filtersec="colorsb9192527504" class="image-svg-svg primary" style="overflow: visible;"><svg xmlns="http://www.w3.org/2000/svg" viewBox="0 8.699999809265137 618.0999755859375 620.5999755859375"><path d="M136.5 183.6H149c1.7 0 3-1.4 3-3v-12.5c0-1.7-1.4-3-3-3h-12.5c-1.7 0-3 1.4-3 3v12.5c-.1 1.7 1.3 3 3 3zM112.9 280.3v14.8c0 2 1.6 3.6 3.6 3.6h14.8c2 0 3.6-1.6 3.6-3.6v-14.8c0-2-1.6-3.6-3.6-3.6h-14.8c-2 0-3.6 1.6-3.6 3.6zM36.1 305.8v-24.3c0-3.2-2.6-5.9-5.9-5.9H5.9c-3.2 0-5.9 2.6-5.9 5.9v24.3c0 3.2 2.6 5.9 5.9 5.9h24.3c3.2 0 5.9-2.7 5.9-5.9zM42.6 260.9h58.5c7.8 0 14.2-6.4 14.2-14.2v-58.5c0-7.8-6.4-14.2-14.2-14.2H42.6c-7.8 0-14.2 6.4-14.2 14.2v58.5c0 7.8 6.4 14.2 14.2 14.2zM154.2 148.9h65.5c8.7 0 15.9-7.1 15.9-15.9V67.6c0-8.7-7.1-15.9-15.9-15.9h-65.5c-8.7 0-15.9 7.1-15.9 15.9v65.5c.1 8.7 7.2 15.8 15.9 15.8zM478.5 160h83.7c4.9 0 9.5.9 13.8 2.6-13.5-23.1-29.9-44.3-48.7-63.1C471.2 43.4 393.6 8.7 307.9 8.7V123.8c53.5 0 102 21.5 137.2 56.4 6.4-12 19-20.2 33.4-20.2zM261.7 118.2c-2.3 0-4.1 1.8-4.1 4.1v16.9c0 2.3 1.8 4.1 4.1 4.1h16.9c2.3 0 4.1-1.8 4.1-4.1v-16.9c0-2.3-1.8-4.1-4.1-4.1h-16.9zM77.5 153h26.1c3.5 0 6.3-2.8 6.3-6.3v-26.1c0-3.5-2.8-6.3-6.3-6.3H77.5c-3.5 0-6.3 2.8-6.3 6.3v26.1c0 3.4 2.9 6.3 6.3 6.3zM282.1 530.8h-13.2c-1.8 0-3.2 1.4-3.2 3.2v13.2c0 1.8 1.4 3.2 3.2 3.2h13.2c1.8 0 3.2-1.4 3.2-3.2V534c0-1.8-1.5-3.2-3.2-3.2zM599.8 281.4c0 20.7-16.9 37.7-37.7 37.7H503c0 107.8-87.4 195.1-195.2 195.1V629.3c85.7 0 163.3-34.7 219.4-90.9 56.1-56.1 90.9-133.7 90.9-219.4 0-37-6.5-72.5-18.4-105.4v67.8zM112.1 473.8H78.8c-4.4 0-8.1 3.6-8.1 8.1v33.3c0 4.4 3.6 8.1 8.1 8.1h33.3c4.4 0 8.1-3.6 8.1-8.1v-33.3c-.1-4.5-3.7-8.1-8.1-8.1zM282 460.2v-24.3c0-3.2-2.6-5.9-5.9-5.9h-24.3c-3.2 0-5.9 2.6-5.9 5.9v24.3c0 3.2 2.6 5.9 5.9 5.9h24.3c3.3 0 5.9-2.7 5.9-5.9zM230 493.4h-65.4c-8.7 0-15.9 7.1-15.9 15.9v65.4c0 8.7 7.1 15.9 15.9 15.9H230c8.7 0 15.9-7.1 15.9-15.9v-65.4c-.1-8.7-7.2-15.9-15.9-15.9zM253.2 390v-48.6c0-6.5-5.3-11.8-11.8-11.8h-48.6c-6.5 0-11.8 5.3-11.8 11.8V390c0 6.5 5.3 11.8 11.8 11.8h48.6c6.5 0 11.8-5.3 11.8-11.8z" fill="#25bcbd"></path><linearGradient id="a23ca9a45-1be7-40b5-9436-d6ce29d47b8b" gradientUnits="userSpaceOnUse" x1="20.209" y1="314.098" x2="582.468" y2="314.098"><stop offset="0" stop-color="#25bcbd"></stop><stop offset="1" stop-color="#c2d72e"></stop></linearGradient><path d="M179.9 300.5c2.1.7 4.3 1.1 6.6 1.1h83.7c2.3 0 4.6-.4 6.6-1.1l37.4 37.4c-1.3 2.7-2 5.7-2 8.8v83.7c0 11.2 9.1 20.3 20.3 20.3h83.7c11.2 0 20.3-9.1 20.3-20.3v-83.7c0-3.2-.7-6.2-2-8.8l37.4-37.4c2.1.7 4.3 1.1 6.6 1.1h83.7c11.2 0 20.3-9.1 20.3-20.3v-83.7c0-11.2-9.1-20.3-20.3-20.3h-83.7c-11.2 0-20.3 9.1-20.3 20.3v83.7c0 2.8.6 5.5 1.6 7.9l-38.1 38.1c-1.8-.5-3.6-.8-5.6-.8h-83.7c-1.9 0-3.8.3-5.6.8l-38.1-38.1c1-2.4 1.6-5.1 1.6-7.9v-83.7c0-11.2-9.1-20.3-20.3-20.3h-83.7c-11.2 0-20.3 9.1-20.3 20.3v83.7c0 2.8.6 5.5 1.6 7.9l-38.1 38.1c-1.8-.5-3.6-.8-5.6-.8H40.5c-11.2 0-20.3 9.1-20.3 20.3v83.7c0 11.2 9.1 20.3 20.3 20.3h83.7c11.2 0 20.3-9.1 20.3-20.3v-83.7c0-3.2-.7-6.2-2-8.8l37.4-37.5z" fill="url(#a23ca9a45-1be7-40b5-9436-d6ce29d47b8b)"></path><path d="M189.8 434.5c-1.6 0-2.9 1.3-2.9 2.9v12.1c0 1.6 1.3 2.9 2.9 2.9H202c1.6 0 2.9-1.3 2.9-2.9v-12.1c0-1.6-1.3-2.9-2.9-2.9h-12.2z" fill="#25bcbd"></path></svg></svg> <!----></g></g> <g transform="translate(67,5.662324905395508)"><g data-gra="path-name" fill-rule="" class="tp-name iconsvg-namesvg" transform="translate(0,0)"><g transform="scale(1)"><g><path d="M36.82 5.85L29.32-10.2 29.32-16.8 1.84-16.8 1.84-20.51 29.32-20.51 29.32-28.35 35.21-28.35 35.21-20.51 43.42-20.51 42.07-16.8 35.21-16.8 35.21-11.92 43.54 5.85 36.82 5.85ZM1.84 5.29L1.84 1.61 5.17 1.35 5.17-11.25 10.91-11.25 10.91 0.9 14.44 0.6 14.44-15.19 20.4-15.19 20.4-9.64 27.22-9.64 25.88-5.96 20.4-5.96 20.4 0.15 29.17-0.56 29.17 3.15 1.84 5.29ZM4.91-23.06L4.91-26.77 26.25-26.77 24.9-23.06 4.91-23.06ZM36.26-27.49L41.44-27.49 42.52-21.94 37.35-21.94 36.26-27.49ZM56.55 5.85L69.22-7.65 59.17-18.34 66.64-18.34 72.94-11.63 80.74-19.95 80.74-23.36 58.58-23.36 58.58-27.07 86.7-27.07 86.7-18.34 76.69-7.65 89.32 5.85 81.86 5.85 72.94-3.67 64.01 5.85 56.55 5.85ZM47.36 5.85L51.75-4.5 51.75-8.85 57.75-8.85 57.75-4.01 53.59 5.85 47.36 5.85ZM47.36-18.52L53.59-18.52 57.75-10.69 51.52-10.69 47.36-18.52ZM47.36-28.01L53.59-28.01 57.75-20.18 51.52-20.18 47.36-28.01ZM91.8 5.85L92.55-13.09 96.38-13.09 95.63 5.85 91.8 5.85ZM91.8-14.96L91.8-18.68 97.05-18.68 97.05-23.36 92.25-23.36 92.25-27.07 102.22-27.07 102.6-28.35 108.71-28.35 107.21-23.36 102.86-23.36 102.86-18.68 108.75-18.68 107.4-14.96 102.86-14.96 102.86 5.85 97.05 5.85 97.05-14.96 91.8-14.96ZM103.5-13.09L107.36-13.09 108.19 2.14 110.44 2.14 110.44-27.68 130.16-27.68 130.16 2.14 133.35 2.14 132 5.85 104.55 5.85 103.5-13.09ZM116.4 2.14L124.24 2.14 124.24-4.13 116.4-4.13 116.4 2.14ZM116.4-7.84L124.24-7.84 124.24-14.1 116.4-14.1 116.4-7.84ZM116.4-17.81L124.24-17.81 124.24-23.96 116.4-23.96 116.4-17.81ZM137.14 5.85L154.5-11.17 154.5-21.3 160.5-21.3 160.5-9.67 144.64 5.85 137.14 5.85ZM140.47-4.88L140.47-27.49 174.6-27.49 174.6-4.88 168.64-4.88 168.64-23.77 146.47-23.77 146.47-4.88 140.47-4.88ZM157.69-6.64L165.22-6.64 177.94 5.85 170.44 5.85 157.69-6.64Z" transform="translate(-1.840000033378601, 28.350000381469727)"></path></g> <!----> <!----> <!----> <!----> <!----> <!----> <!----></g></g> <g data-gra="path-slogan" fill-rule="" class="tp-slogan iconsvg-slogansvg" fill="#25bcbd" transform="translate(46.87000274658203,40.20000076293945)"><!----> <!----> <g transform="scale(1, 1)"><g transform="scale(1)"><path d="M5.67-7.13L5.63-7.13L3.66 0L2.44 0L0.19-8.58L1.41-8.58L3.05-1.59L3.09-1.59L5.02-8.58L6.28-8.58L8.20-1.59L8.25-1.59L9.84-8.58L11.11-8.58L8.86 0L7.64 0L5.67-7.13ZM17.86-3.19L17.86-8.58L19.03-8.58L19.03-3.05Q18.89 0.05 15.52 0.14L15.52 0.14Q12.38 0.05 12.23-2.86L12.23-2.86L12.23-8.58L13.41-8.58L13.41-3.19Q13.45-0.84 15.56-0.80L15.56-0.80Q17.86-0.84 17.86-3.19L17.86-3.19ZM21.98-5.06L26.48-5.06L26.48-8.58L27.66-8.58L27.66 0L26.48 0L26.48-3.98L21.98-3.98L21.98 0L20.81 0L20.81-8.58L21.98-8.58L21.98-5.06ZM35.11 0L34.27-2.48L30.80-2.48L29.91 0L28.73 0L31.97-8.58L33.28-8.58L36.38 0L35.11 0ZM32.53-7.31L31.17-3.52L33.84-3.52L32.58-7.31L32.53-7.31ZM38.81-8.58L43.13-1.64L43.13-8.58L44.25-8.58L44.25 0L42.94 0L38.58-6.94L38.53-6.94L38.53 0L37.41 0L37.41-8.58L38.81-8.58ZM50.20-1.03L55.50-1.03L55.50 0L48.75 0L48.75-0.94L54-7.59L49.13-7.59L49.13-8.58L55.50-8.58L55.50-7.59L50.20-1.03ZM62.30-3.19L62.30-8.58L63.47-8.58L63.47-3.05Q63.33 0.05 59.95 0.14L59.95 0.14Q56.81 0.05 56.67-2.86L56.67-2.86L56.67-8.58L57.84-8.58L57.84-3.19Q57.89-0.84 60-0.80L60-0.80Q62.30-0.84 62.30-3.19L62.30-3.19ZM68.48-7.64L66.42-7.64L66.42-4.97L68.48-4.97Q70.31-4.92 70.27-6.38L70.27-6.38Q70.27-7.64 68.48-7.64L68.48-7.64ZM68.95 0L65.25 0L65.25-8.58L69.05-8.58Q71.34-8.48 71.44-6.42L71.44-6.42Q71.44-5.16 70.31-4.64L70.31-4.64Q71.91-4.08 71.91-2.53L71.91-2.53Q71.77-0.09 68.95 0L68.95 0ZM68.67-3.98L66.42-3.98L66.42-0.98L68.91-0.98Q70.69-1.03 70.73-2.53L70.73-2.53Q70.73-3.98 68.67-3.98L68.67-3.98ZM74.53-1.03L79.69-1.03L79.69 0L73.36 0L73.36-8.58L79.59-8.58L79.59-7.59L74.53-7.59L74.53-4.92L79.22-4.92L79.22-3.89L74.53-3.89L74.53-1.03ZM81.38-8.58L82.55-8.58L82.55 0L81.38 0L81.38-8.58Z" transform="translate(-0.1875, 8.578125)"></path></g></g></g></g></g><defs v-gra="od"></defs></svg>